<svg width="418" height="159" viewBox="0 0 418 159" fill="none" xmlns="http://www.w3.org/2000/svg">
<g clip-path="url(#clip0_5_101)">
<rect width="418" height="159" fill="white"/>
<rect x="101" y="30" width="217" height="99" fill="#0063D7" fill-opacity="0.14"/>
<rect x="109" y="38" width="201" height="83" fill="#0063D7" fill-opacity="0.31"/>
<rect x="117" y="46" width="185" height="67" fill="#0063D7"/>
<g filter="url(#filter0_d_5_101)">
<path d="M284.311 148.017L257.818 97.9359L313.693 109.752L292.138 123.727L284.311 148.017Z" fill="black"/>
<path d="M284.311 148.017L257.818 97.9359L313.693 109.752L292.138 123.727L284.311 148.017Z" stroke="white" stroke-width="3.48372"/>
</g>
<path d="M182.08 88.3099C180.316 88.3099 178.862 87.849 177.718 86.9272C176.589 86.0054 175.906 84.7816 175.668 83.2558L178.671 82.5168C178.846 83.534 179.244 84.2969 179.863 84.8054C180.499 85.314 181.278 85.5683 182.2 85.5683C182.692 85.5683 183.129 85.4889 183.511 85.3299C183.908 85.1551 184.218 84.9088 184.441 84.5909C184.679 84.2571 184.798 83.8677 184.798 83.4227C184.798 83.0095 184.679 82.6519 184.441 82.3499C184.202 82.048 183.837 81.7698 183.344 81.5155C182.867 81.2612 182.263 80.999 181.532 80.7288C180.483 80.3156 179.601 79.8785 178.886 79.4176C178.187 78.9408 177.662 78.3925 177.312 77.7727C176.963 77.1528 176.788 76.4217 176.788 75.5794C176.788 74.6894 177.003 73.9026 177.432 73.2192C177.877 72.5358 178.489 71.9954 179.267 71.5981C180.062 71.2008 180.984 71.0021 182.033 71.0021C183.145 71.0021 184.131 71.2644 184.989 71.7888C185.863 72.2974 186.562 73.0603 187.087 74.0775L184.631 75.5794C184.298 74.9754 183.9 74.5225 183.439 74.2205C182.994 73.9026 182.494 73.7437 181.937 73.7437C181.54 73.7437 181.182 73.8232 180.865 73.9821C180.563 74.1251 180.316 74.3318 180.126 74.6019C179.951 74.8562 179.863 75.1582 179.863 75.5079C179.863 75.8734 179.967 76.1992 180.173 76.4853C180.396 76.7714 180.745 77.0495 181.222 77.3197C181.715 77.574 182.351 77.8442 183.129 78.1303C184.162 78.5117 185.021 78.9329 185.704 79.3938C186.403 79.8547 186.936 80.3951 187.301 81.0149C187.667 81.6188 187.85 82.3579 187.85 83.232C187.85 84.2174 187.603 85.0995 187.111 85.8782C186.634 86.6411 185.966 87.2371 185.108 87.6662C184.25 88.0954 183.241 88.3099 182.08 88.3099ZM194.078 88V74.149H188.928V71.3836H202.326V74.149H197.201V88H194.078ZM200.544 88L207.219 71.3836H209.532L216.207 88H212.845L208.411 75.937L203.905 88H200.544ZM204.931 84.7578L205.884 81.9923H210.89L211.892 84.7578H204.931ZM218.015 88V71.3836H223.498C224.849 71.3836 225.937 71.5822 226.764 71.9796C227.59 72.361 228.194 72.9173 228.576 73.6483C228.973 74.3635 229.172 75.2138 229.172 76.1992C229.172 77.725 228.735 78.909 227.86 79.7514C227.002 80.5778 225.77 81.0387 224.165 81.1341C223.8 81.15 223.426 81.1579 223.045 81.1579C222.663 81.1579 222.338 81.1579 222.067 81.1579H221.09V88H218.015ZM227.05 88L222.878 80.8003L226.025 80.4189L230.602 88H227.05ZM221.09 78.3925H223.188C223.712 78.3925 224.189 78.3369 224.618 78.2256C225.063 78.0985 225.421 77.8839 225.691 77.5819C225.961 77.2641 226.096 76.8191 226.096 76.2469C226.096 75.6589 225.961 75.2138 225.691 74.9119C225.421 74.6099 225.063 74.4112 224.618 74.3159C224.189 74.2046 223.712 74.149 223.188 74.149H221.09V78.3925ZM236.03 88V74.149H230.881V71.3836H244.279V74.149H239.153V88H236.03Z" fill="white"/>
</g>
<defs>
<filter id="filter0_d_5_101" x="247.567" y="91.9845" width="77.5625" height="70.9649" filterUnits="userSpaceOnUse" color-interpolation-filters="sRGB">
<feFlood flood-opacity="0" result="BackgroundImageFix"/>
<feColorMatrix in="SourceAlpha" type="matrix" values="0 0 0 0 0 0 0 0 0 0 0 0 0 0 0 0 0 0 127 0" result="hardAlpha"/>
<feOffset dy="3.48372"/>
<feGaussianBlur stdDeviation="3.48372"/>
<feComposite in2="hardAlpha" operator="out"/>
<feColorMatrix type="matrix" values="0 0 0 0 0 0 0 0 0 0 0 0 0 0 0 0 0 0 0.25 0"/>
<feBlend mode="normal" in2="BackgroundImageFix" result="effect1_dropShadow_5_101"/>
<feBlend mode="normal" in="SourceGraphic" in2="effect1_dropShadow_5_101" result="shape"/>
</filter>
<clipPath id="clip0_5_101">
<rect width="418" height="159" fill="white"/>
</clipPath>
</defs>
</svg>
